<?xml version="1.0" encoding="UTF-8"?>
<svg id="katman_2" data-name="katman 2" xmlns="http://www.w3.org/2000/svg" viewBox="0 0 1440 1101.57">
  <defs>
    <style>
      .cls-1 {
        fill: #fc8900;
      }

      .cls-2 {
        fill: #141414;
      }
    </style>
  </defs>
  <g id="katman_1" data-name="katman 1">
    <rect class="cls-2" width="1440" height="1101.57"/>
    <g>
      <path class="cls-1" d="m420.01,625.38c-9.62,0-18.61-1.77-26.96-5.32-8.36-3.54-15.7-8.45-22.03-14.72-6.33-6.27-11.3-13.51-14.91-21.74-3.61-8.23-5.41-17.09-5.41-26.58s1.8-18.35,5.41-26.58c3.61-8.23,8.57-15.48,14.91-21.74,6.33-6.27,13.67-11.17,22.03-14.72,8.35-3.54,17.34-5.32,26.96-5.32,5.95,0,11.71.64,17.28,1.9,5.57,1.27,10.7,3.17,15.38,5.7,1.9,1.01,3.32,2.37,4.27,4.08s1.42,3.45,1.42,5.22c0,3.04-1.01,5.76-3.04,8.17-2.03,2.41-4.62,3.61-7.78,3.61-1.01,0-2.06-.12-3.13-.38-1.08-.25-2.12-.63-3.13-1.14-3.17-1.39-6.52-2.47-10.06-3.23-3.55-.76-7.28-1.14-11.2-1.14-8.23,0-15.73,2.06-22.5,6.17-6.77,4.11-12.15,9.62-16.14,16.52-3.99,6.9-5.98,14.53-5.98,22.88s1.99,15.83,5.98,22.79c3.99,6.96,9.37,12.5,16.14,16.62,6.77,4.11,14.27,6.17,22.5,6.17,3.8,0,7.98-.38,12.53-1.14,4.56-.76,8.29-1.77,11.2-3.04l-1.71,5.7v-32.47l3.23,2.85h-21.08c-3.29,0-6.05-1.08-8.26-3.23-2.22-2.15-3.32-4.87-3.32-8.16s1.11-6.01,3.32-8.17c2.21-2.15,4.97-3.23,8.26-3.23h31.14c3.29,0,6.01,1.11,8.17,3.32,2.15,2.22,3.23,4.97,3.23,8.26v40.26c0,2.53-.6,4.62-1.8,6.27-1.2,1.65-2.56,2.98-4.08,3.99-5.82,3.55-12.19,6.36-19.08,8.45-6.9,2.09-14.15,3.13-21.74,3.13Z"/>
      <path class="cls-1" d="m535.46,625.38c-10.76,0-20.1-2.25-28.01-6.74-7.91-4.49-13.99-10.6-18.23-18.32-4.24-7.72-6.36-16.45-6.36-26.2,0-11.39,2.31-21.11,6.93-29.15,4.62-8.04,10.66-14.21,18.13-18.51,7.47-4.3,15.38-6.46,23.73-6.46,6.46,0,12.56,1.33,18.32,3.99,5.76,2.66,10.85,6.3,15.28,10.92,4.43,4.62,7.94,9.97,10.54,16.05,2.59,6.08,3.89,12.53,3.89,19.37-.13,3.04-1.33,5.51-3.61,7.41-2.28,1.9-4.94,2.85-7.98,2.85h-72.54l-5.7-18.99h69.69l-4.18,3.8v-5.13c-.26-3.67-1.55-6.96-3.89-9.87-2.34-2.91-5.25-5.22-8.73-6.93-3.48-1.71-7.19-2.56-11.11-2.56s-7.34.51-10.63,1.52c-3.29,1.01-6.14,2.72-8.54,5.13s-4.31,5.63-5.7,9.68c-1.4,4.05-2.09,9.18-2.09,15.38,0,6.84,1.42,12.63,4.27,17.37s6.52,8.35,11.01,10.82c4.49,2.47,9.27,3.7,14.34,3.7,4.68,0,8.42-.38,11.2-1.14,2.78-.76,5.03-1.68,6.74-2.75,1.71-1.07,3.26-1.99,4.65-2.75,2.28-1.14,4.43-1.71,6.46-1.71,2.78,0,5.09.95,6.93,2.85,1.83,1.9,2.75,4.11,2.75,6.65,0,3.42-1.77,6.52-5.32,9.3-3.29,2.79-7.91,5.22-13.86,7.31-5.95,2.09-12.09,3.13-18.42,3.13Z"/>
      <path class="cls-1" d="m624.32,611.9c0,3.29-1.11,6.05-3.32,8.26-2.22,2.22-4.97,3.32-8.26,3.32s-5.82-1.11-7.98-3.32c-2.15-2.21-3.23-4.97-3.23-8.26v-117.35c0-3.29,1.11-6.04,3.32-8.26,2.21-2.21,4.97-3.32,8.26-3.32s5.98,1.11,8.07,3.32c2.09,2.22,3.13,4.97,3.13,8.26v117.35Z"/>
    </g>
    <g>
      <path class="cls-1" d="m655.54,621.58c-3.29,0-6.01-1.11-8.17-3.32-2.15-2.21-3.23-4.97-3.23-8.26v-117.35c0-3.29,1.07-6.04,3.23-8.26,2.15-2.21,4.87-3.32,8.17-3.32s6.01,1.11,8.17,3.32c2.15,2.22,3.23,4.97,3.23,8.26v117.35c0,3.29-1.08,6.05-3.23,8.26-2.15,2.22-4.87,3.32-8.17,3.32Zm60.38-101.59c2.91,0,5.44,1.2,7.6,3.61,2.15,2.41,3.23,4.75,3.23,7.03,0,3.04-1.52,5.89-4.56,8.54l-57.15,52.6-.95-26.2,43.48-41.96c2.4-2.4,5.19-3.61,8.35-3.61Zm2.85,101.4c-3.29,0-6.08-1.26-8.35-3.8l-35.13-37.22,17.28-15.95,34.18,37.22c2.4,2.53,3.61,5.38,3.61,8.54s-1.3,5.98-3.89,8.07c-2.6,2.09-5.16,3.13-7.69,3.13Z"/>
      <path class="cls-1" d="m815.42,520c3.29,0,6.01,1.11,8.17,3.32,2.15,2.22,3.23,4.97,3.23,8.26v48.23c0,13.42-3.74,24.05-11.2,31.9-7.47,7.85-18.23,11.77-32.28,11.77s-24.78-3.92-32.19-11.77c-7.41-7.85-11.11-18.48-11.11-31.9v-48.23c0-3.29,1.08-6.04,3.23-8.26,2.15-2.21,4.87-3.32,8.16-3.32s6.01,1.11,8.17,3.32c2.15,2.22,3.23,4.97,3.23,8.26v48.23c0,7.72,1.71,13.45,5.13,17.18,3.42,3.74,8.55,5.6,15.38,5.6s12.15-1.87,15.57-5.6c3.42-3.73,5.13-9.46,5.13-17.18v-48.23c0-3.29,1.07-6.04,3.23-8.26,2.15-2.21,4.87-3.32,8.16-3.32Z"/>
      <path class="cls-1" d="m853.58,621.58c-3.29,0-6.01-1.11-8.16-3.32-2.15-2.21-3.23-4.97-3.23-8.26v-78.42c0-3.29,1.08-6.04,3.23-8.26,2.15-2.21,4.87-3.32,8.16-3.32s6.01,1.11,8.17,3.32c2.15,2.22,3.23,4.97,3.23,8.26v17.85l-1.33-12.72c1.39-3.04,3.19-5.73,5.41-8.07,2.21-2.34,4.71-4.3,7.5-5.89,2.78-1.58,5.76-2.75,8.93-3.51,3.16-.76,6.33-1.14,9.49-1.14,3.8,0,6.99,1.08,9.59,3.23,2.59,2.15,3.89,4.69,3.89,7.6,0,4.18-1.08,7.18-3.23,9.02-2.15,1.84-4.5,2.75-7.03,2.75s-4.59-.44-6.55-1.33c-1.96-.88-4.21-1.33-6.74-1.33-2.28,0-4.59.54-6.93,1.61-2.34,1.08-4.49,2.75-6.46,5.03-1.96,2.28-3.55,5.1-4.75,8.45-1.2,3.36-1.8,7.31-1.8,11.87v45c0,3.29-1.08,6.05-3.23,8.26-2.15,2.22-4.87,3.32-8.17,3.32Z"/>
      <path class="cls-1" d="m990.68,520c3.29,0,6.01,1.11,8.17,3.32,2.15,2.22,3.23,4.97,3.23,8.26v80.7c0,11.65-2.18,20.92-6.55,27.82-4.37,6.9-10.22,11.87-17.56,14.91-7.34,3.04-15.57,4.56-24.69,4.56-4.05,0-8.36-.32-12.91-.95-4.56-.63-8.29-1.58-11.2-2.85-3.8-1.65-6.43-3.7-7.88-6.17-1.46-2.47-1.74-5.1-.85-7.88,1.14-3.67,2.97-6.17,5.51-7.5,2.53-1.33,5.19-1.49,7.98-.48,2.02.63,4.68,1.61,7.98,2.94,3.29,1.33,7.09,1.99,11.39,1.99,5.82,0,10.66-.79,14.53-2.37,3.86-1.58,6.77-4.24,8.73-7.98,1.96-3.73,2.94-8.83,2.94-15.28v-12.72l3.99,4.56c-2.15,4.18-4.84,7.63-8.07,10.35-3.23,2.72-7.06,4.78-11.49,6.17-4.43,1.39-9.49,2.09-15.19,2.09-6.71,0-12.56-1.55-17.56-4.65-5-3.1-8.89-7.41-11.68-12.91-2.79-5.51-4.18-11.8-4.18-18.89v-55.45c0-3.29,1.08-6.04,3.23-8.26,2.15-2.21,4.87-3.32,8.16-3.32s6.01,1.11,8.17,3.32c2.15,2.22,3.23,4.97,3.23,8.26v48.61c0,8.23,1.8,14.02,5.41,17.37,3.61,3.36,8.64,5.03,15.1,5.03,4.43,0,8.16-.85,11.2-2.56,3.04-1.71,5.38-4.24,7.03-7.6,1.64-3.35,2.47-7.43,2.47-12.25v-48.61c0-3.29,1.07-6.04,3.23-8.26,2.15-2.21,4.87-3.32,8.16-3.32Z"/>
      <path class="cls-1" d="m1064.35,623.48c-10.76,0-20.1-2.25-28.01-6.74-7.91-4.49-13.99-10.6-18.23-18.32-4.24-7.72-6.36-16.45-6.36-26.2,0-11.39,2.31-21.11,6.93-29.15,4.62-8.04,10.66-14.21,18.13-18.51,7.47-4.3,15.38-6.46,23.73-6.46,6.46,0,12.56,1.33,18.32,3.99,5.76,2.66,10.85,6.3,15.28,10.92,4.43,4.62,7.94,9.97,10.54,16.04,2.59,6.08,3.89,12.53,3.89,19.37-.13,3.04-1.33,5.51-3.61,7.41-2.28,1.9-4.94,2.85-7.98,2.85h-72.54l-5.7-18.99h69.69l-4.18,3.8v-5.13c-.26-3.67-1.55-6.96-3.89-9.87-2.34-2.91-5.25-5.22-8.73-6.93-3.48-1.71-7.19-2.56-11.11-2.56s-7.34.51-10.63,1.52c-3.29,1.01-6.14,2.72-8.54,5.13-2.41,2.41-4.31,5.63-5.7,9.68-1.4,4.05-2.09,9.18-2.09,15.38,0,6.84,1.42,12.63,4.27,17.37,2.85,4.75,6.52,8.35,11.01,10.82,4.49,2.47,9.27,3.7,14.34,3.7,4.68,0,8.42-.38,11.2-1.14,2.78-.76,5.03-1.68,6.74-2.75,1.71-1.07,3.26-1.99,4.65-2.75,2.28-1.14,4.43-1.71,6.46-1.71,2.78,0,5.09.95,6.93,2.85,1.83,1.9,2.75,4.11,2.75,6.65,0,3.42-1.77,6.52-5.32,9.3-3.29,2.79-7.91,5.22-13.86,7.31-5.95,2.09-12.09,3.13-18.42,3.13Z"/>
    </g>
    <g>
      <path class="cls-1" d="m446.6,666.86c-.05.34-.1.69-.16,1.04-.74,4.87-1.85,10.85-3.41,16.93-1.16,4.56-2.59,9.17-4.24,13.36-1.23,3.14-2.6,6.05-4.02,8.51-1.06,1.85-2.15,3.44-3.2,4.71-1.58,1.93-3.02,3.08-4.11,3.69-.55.31-1.03.49-1.51.62-.48.13-.97.2-1.61.2-.73,0-1.68-.11-2.95-.47-1.19-.5-6.16-2.76-13.82-8.74-8.82-6.89-21.22-18.72-35.36-38.57l-11.21-15.74-55.88,61.7,23.03,20.86,30.39-33.56c12.2,14.85,23.26,24.87,32.12,31.5,11.61,8.69,19.44,11.56,20.95,12.06l.19.06.17.05c4.08,1.24,8.24,1.91,12.36,1.91,3.52,0,6.99-.49,10.26-1.43,3.06-.87,5.93-2.13,8.54-3.64,4.91-2.85,8.9-6.54,12.21-10.51,2.9-3.49,5.3-7.22,7.38-11.06,3.63-6.72,6.3-13.8,8.41-20.71,3.1-10.19,4.94-20.02,6.07-27.52-10.49-.63-20.75-2.41-30.63-5.27Z"/>
      <path class="cls-1" d="m521.78,791.92l118.88-32.83-8.27-29.95-66.23,18.29c.29-3.53.44-7.03.44-10.48,0-11.71-1.53-22.92-3.79-33.18-3.4-15.4-8.44-28.67-12.9-38.36-1.19-2.59-2.34-4.92-3.42-6.99-6.9,3.33-14.08,6.1-21.48,8.28l-1.81,5.92,1.81-5.92c-.73.22-1.47.41-2.21.61l-2.21,4.23,2.21-4.23c-1.12.31-2.23.62-3.36.9l-1.37,1.67,1.37-1.67c-.74.19-1.49.35-2.24.52l-.19.19.19-.19c-.16.04-.31.07-.47.11.49.79,1.19,2,1.99,3.53,1.48,2.79,3.31,6.59,5.19,11.12,2.83,6.79,5.76,15.2,7.96,24.4,2.2,9.19,3.65,19.16,3.65,29.06,0,9.28-1.26,18.47-4.23,27.14l-9.52,27.84Z"/>
      <path class="cls-1" d="m394.2,671.34c4.6,2.13,8.5,4.42,12.31,6.3,5.13,2.37,8.69,4.31,13.02,2.78,5.51-2.96,8.02-8.64,12.57-14.02,2.21,9.2-1.02,21.23-10.79,24.5-12.77,3.67-24.22-8.11-27.11-19.56Z"/>
      <path class="cls-1" d="m508.64,686.33c13.86,12.19,17.91,38.34,6.23,53.13-2.03-9.29-2.85-17.28-4.19-26.31-1.13-9-2.29-17.37-2.03-26.82Z"/>
    </g>
    <path class="cls-1" d="m598.13,438.22c5.05,0,9.41-.21,13.74.05,7.82.46,13.03,5.55,12.77,12.11-.27,6.81-5.32,11.27-13.4,11.28-45.31.07-90.63.04-135.94.04-36.59,0-73.18.05-109.77-.06-10.2-.03-16.07-7.6-12.7-16,2.19-5.45,6.77-7.14,12.22-7.45,13.18-.75,13.18-.79,17.23-13.54,14.99-47.1,59.88-78.33,110.56-76.92,47.94,1.33,91.05,35.93,103.22,82.82.6,2.32,1.24,4.62,2.06,7.68Zm-25.3-.38c-4.04-37.7-47.92-69.36-91.62-66.44-37.12,2.48-77.55,37.35-76.87,66.44h168.49Z"/>
    <path class="cls-1" d="m538.69,332c-9.08-12.03-20.97-18.57-34.58-23.06,1.03-1.97,1.69-3.19,2.29-4.43,4.25-8.75,2.71-10.89-7.17-10.53-7.16.26-14.33.18-21.5.21-13.45.06-14.05,1.07-7.68,13.04.18.34-.03.9-.11,2.05-12.52,4.08-24.03,10.34-33.61,22.73h102.37Z"/>
    <path class="cls-1" d="m408.22,355.26c-11.77,13.11-23.65,24.75-32.07,40.09-2.82,4.88-5.02,10.14-7.65,16.01-7.74-25.19,14.99-52.67,39.72-56.11Z"/>
    <path class="cls-1" d="m368.49,350.3c-2.86,6.75-6.14,11.74-9.94,17.37-4,5.59-7.03,10.11-11.91,15.71-6.66-14.34,6.5-32.82,21.85-33.08Z"/>
  </g>
</svg>